<svg width="9" height="9" viewBox="0 0 9 9" fill="none" xmlns="http://www.w3.org/2000/svg">
<path d="M8.27821 2.53333C8.27356 2.17295 8.20817 1.81614 8.08497 1.47889C7.97814 1.19441 7.81497 0.936056 7.60588 0.720329C7.3968 0.504602 7.1464 0.336247 6.87068 0.22602C6.54801 0.101046 6.20712 0.0334706 5.86254 0.0261708C5.41888 0.00571001 5.27822 0 4.15202 0C3.02581 0 2.88146 3.1907e-08 2.44103 0.0261708C2.0966 0.0335243 1.75588 0.101099 1.43335 0.22602C1.15759 0.33617 0.907154 0.504498 0.69806 0.720235C0.488965 0.935971 0.32582 1.19437 0.219061 1.47889C0.0976925 1.81156 0.0323395 2.16318 0.0258262 2.51858C0.00599536 2.9768 0 3.12193 0 4.28392C0 5.4459 -3.43607e-09 5.59436 0.0258262 6.04925C0.0327439 6.40517 0.0977704 6.75634 0.219061 7.0899C0.325999 7.37433 0.489266 7.63262 0.69843 7.84826C0.907594 8.06391 1.15806 8.23217 1.43381 8.34229C1.75546 8.47228 2.09624 8.54469 2.4415 8.55641C2.88561 8.57687 3.02627 8.58306 4.15248 8.58306C5.27868 8.58306 5.42303 8.58306 5.86346 8.55641C6.20804 8.54941 6.54894 8.48199 6.8716 8.35704C7.14725 8.24668 7.39759 8.07828 7.60665 7.86257C7.81572 7.64686 7.97894 7.38857 8.0859 7.10417C8.20719 6.77109 8.27221 6.41992 8.27913 6.06353C8.29896 5.60578 8.30496 5.46065 8.30496 4.29819C8.30403 3.13621 8.30404 2.9887 8.27821 2.53333ZM4.14925 6.48131C2.97139 6.48131 2.01721 5.49681 2.01721 4.28154C2.01721 3.06626 2.97139 2.08176 4.14925 2.08176C4.7147 2.08176 5.257 2.31353 5.65683 2.72606C6.05667 3.1386 6.28129 3.69812 6.28129 4.28154C6.28129 4.86495 6.05667 5.42447 5.65683 5.83701C5.257 6.24955 4.7147 6.48131 4.14925 6.48131ZM6.36615 2.51334C6.30085 2.51341 6.23617 2.50018 6.17583 2.47443C6.11548 2.44867 6.06065 2.41089 6.01447 2.36325C5.9683 2.3156 5.93168 2.25903 5.90672 2.19677C5.88175 2.13451 5.86894 2.06778 5.869 2.0004C5.869 1.93307 5.88185 1.8664 5.90682 1.80419C5.93179 1.74199 5.9684 1.68547 6.01454 1.63786C6.06069 1.59025 6.11547 1.55248 6.17576 1.52672C6.23604 1.50095 6.30066 1.48769 6.36592 1.48769C6.43118 1.48769 6.49579 1.50095 6.55608 1.52672C6.61637 1.55248 6.67115 1.59025 6.7173 1.63786C6.76344 1.68547 6.80004 1.74199 6.82502 1.80419C6.84999 1.8664 6.86284 1.93307 6.86284 2.0004C6.86284 2.28399 6.64055 2.51334 6.36615 2.51334Z" fill="#777777"/>
</svg>
