<svg width="495" height="614" viewBox="0 0 495 614" fill="none" xmlns="http://www.w3.org/2000/svg">
<path d="M0.888916 36C2.88892 23 14.5413 2.86445 39.8889 0H490.389C399.791 38.3334 366.817 59.7495 414.389 97.5C491.649 160.286 525.121 191.786 459.889 201C313.592 230.095 334.81 229.418 414.389 278.5C501.701 326.902 497.076 354.96 459.889 405.5C426.52 441.809 409.883 462.426 414.389 503.5C418.895 544.574 459.889 614 459.889 614H35.8889C8.23071 605.67 0.184143 592.424 0.888916 564.5C0.888916 564.5 -1.11108 49 0.888916 36Z" fill="#136F5F"/>
</svg>
