<svg width="8" height="6" viewBox="0 0 8 6" fill="none" xmlns="http://www.w3.org/2000/svg">
<path d="M7.11853 0.695548C6.85657 0.813062 6.57539 0.893854 6.27997 0.929109C6.5818 0.745492 6.81244 0.454642 6.92206 0.108709C6.63445 0.281651 6.32063 0.403319 5.99381 0.468597C5.85633 0.319922 5.69094 0.201698 5.50773 0.121134C5.32452 0.0405712 5.12732 -0.00064231 4.92816 7.5676e-06C4.12163 7.5676e-06 3.46815 0.664701 3.46815 1.48363C3.46815 1.59968 3.48096 1.71278 3.50588 1.82149C2.92737 1.79314 2.36095 1.64069 1.84274 1.37386C1.32453 1.10703 0.865917 0.731682 0.496162 0.27176C0.366293 0.497316 0.297918 0.754891 0.298267 1.01724C0.298267 1.53137 0.556669 1.98674 0.948189 2.25188C0.716441 2.24439 0.489656 2.18073 0.286165 2.06606V2.08443C0.288364 2.42923 0.406326 2.76259 0.619965 3.02774C0.833605 3.29289 1.12971 3.47345 1.45788 3.53867C1.24244 3.59744 1.01702 3.60598 0.797988 3.56364C0.893467 3.86027 1.07609 4.11887 1.3205 4.30352C1.56492 4.48818 1.85899 4.58974 2.1619 4.5941C1.64222 5.00728 1.00417 5.23051 0.348096 5.22868C0.23064 5.22868 0.114608 5.22133 0 5.20811C0.669478 5.64533 1.44575 5.8769 2.23807 5.87574C4.9246 5.87574 6.39316 3.61505 6.39316 1.65403L6.38817 1.4616C6.67455 1.25395 6.92201 0.994392 7.11853 0.695548Z" fill="white"/>
</svg>
