<svg width="496" height="614" viewBox="0 0 496 614" fill="none" xmlns="http://www.w3.org/2000/svg">
<path d="M494.5 36C492.5 23 480.848 2.86445 455.5 0H5.00002C95.5983 38.3334 128.572 59.7495 81 97.5C3.73979 160.286 -29.7322 191.786 35.5 201C181.797 230.095 160.579 229.418 81 278.5C-6.3119 326.902 -1.68711 354.96 35.5 405.5C68.8687 441.809 85.5057 462.426 81 503.5C76.4944 544.574 35.5 614 35.5 614H459.5C487.158 605.67 495.205 592.424 494.5 564.5C494.5 564.5 496.5 49 494.5 36Z" fill="#136F5F"/>
</svg>
